<svg width="34" height="24" viewBox="0 0 34 24" fill="none" xmlns="http://www.w3.org/2000/svg">
<path fill-rule="evenodd" clip-rule="evenodd" d="M13.352 21.866C13.7158 21.4809 13.7161 20.8788 13.3527 20.4933L5.99338 12.6859C5.63029 12.3007 5.63029 11.6993 5.99338 11.3141L13.3527 3.50667C13.7161 3.12116 13.7158 2.51915 13.352 2.13404L12.063 0.769509C11.6684 0.351789 11.0037 0.351789 10.6091 0.769509L0.648715 11.3133C0.284623 11.6987 0.284623 12.3013 0.648715 12.6867L10.6091 23.2305C11.0037 23.6482 11.6684 23.6482 12.063 23.2305L13.352 21.866Z" fill="black"/>
<rect width="30" height="4" rx="1" transform="matrix(-1 0 0 1 34 10)" fill="black"/>
</svg>
