<svg width="24" height="24" viewBox="0 0 24 24" fill="none" xmlns="http://www.w3.org/2000/svg">
<path d="M6.8428 6.1469H2.49592C1.49182 6.22398 0.889044 6.58777 0.827396 7.73451L0.827393 18.3066C0.827393 19.4433 1.54556 20 2.49268 20H21.295C23.0049 20 23.1211 18.9754 23.1723 18.2741V7.73697C23.1723 6.84916 22.589 6.1469 21.3252 6.1469H17.2282L15.9965 4.22974C15.9045 4.08656 15.746 4 15.5759 4H8.34636C8.16598 4 7.99958 4.09716 7.91092 4.25426L6.8428 6.1469Z" stroke="#8D6CAB"/>
<mask id="path-2-inside-1_24325_43873" fill="white">
<rect x="3.49414" y="4" width="2.12825" height="1.07004" rx="0.2"/>
</mask>
<rect x="3.49414" y="4" width="2.12825" height="1.07004" rx="0.2" fill="#8B8B8B" stroke="#8D6CAB" stroke-width="1.07004" mask="url(#path-2-inside-1_24325_43873)"/>
<circle cx="18.3754" cy="8.80414" r="0.561949" fill="#AE2573" stroke="#AE2573"/>
<circle cx="12.0123" cy="12.5421" r="4.79992" fill="#AE2573"/>
<circle cx="11.9898" cy="12.545" r="3.70906" fill="#E0E6FF"/>
</svg>
