<svg width="24" height="24" viewBox="0 0 24 24" fill="none" xmlns="http://www.w3.org/2000/svg">
<path d="M20.8535 5.1465L15.8535 0.146484C15.7598 0.0527344 15.6328 0 15.5 0H4.99997C3.89747 0 3 0.896953 3 2.00002V22C3 23.103 3.89747 24 5.00002 24H19C20.1025 24 21 23.103 21 22V5.49998C21 5.36719 20.9473 5.24025 20.8535 5.1465ZM16 1.70705L19.293 5.00002H17C16.4482 5.00002 16 4.55128 16 4.00003V1.70705ZM20 22C20 22.5512 19.5518 23 19 23H5.00002C4.44825 23 4.00003 22.5512 4.00003 22V2.00002C4.00003 1.44877 4.4483 1.00003 5.00002 1.00003H15V4.00003C15 4.73249 14.8923 6 16.3592 6H20V22Z" fill="#8D6CAB"/>
<path d="M15.8572 5.14251L15.7515 1.27344L20.1429 5.14251H15.8572Z" fill="#8D6CAB"/>
<path d="M17.3735 15.4477H10.3736C9.87626 15.4477 9.47354 15.8504 9.47354 16.3477C9.47354 16.845 9.87626 17.2477 10.3736 17.2477H17.3735C17.8708 17.2477 18.2736 16.845 18.2736 16.3477C18.2736 15.8504 17.8708 15.4477 17.3735 15.4477Z" fill="#AE2573" stroke="#E0E6FF" stroke-width="0.8"/>
<path d="M6.37257 8.24769H12.3726C12.8699 8.24769 13.2726 7.84496 13.2726 7.34767C13.2726 6.85038 12.8699 6.44766 12.3726 6.44766H6.37257C5.87529 6.44766 5.47256 6.85038 5.47256 7.34767C5.47256 7.84496 5.87529 8.24769 6.37257 8.24769Z" fill="#8D6CAB" stroke="#E0E6FF" stroke-width="0.8"/>
<path d="M18.2726 13.3477V13.3476C18.2725 12.8504 17.8698 12.4477 17.3725 12.4477H6.37257C5.87528 12.4477 5.47256 12.8504 5.47256 13.3477C5.47256 13.845 5.87528 14.2477 6.37257 14.2477H17.3726C17.8699 14.2477 18.2726 13.845 18.2726 13.3477Z" fill="#8D6CAB" stroke="#E0E6FF" stroke-width="0.8"/>
<path d="M6.37257 9.44766H6.37251C5.87531 9.44774 5.47256 9.85039 5.47256 10.3477C5.47256 10.845 5.87529 11.2477 6.37257 11.2477H17.3726C17.8699 11.2477 18.2726 10.845 18.2726 10.3477C18.2726 9.85038 17.8699 9.44766 17.3726 9.44766H6.37257Z" fill="#8D6CAB" stroke="#E0E6FF" stroke-width="0.8"/>
</svg>
