<svg width="24" height="24" viewBox="0 0 24 24" fill="none" xmlns="http://www.w3.org/2000/svg">
<mask id="path-1-inside-1_24325_43864" fill="white">
<path d="M21.9614 19.4091V3.06789C21.9614 1.41523 20.6247 0.0738227 18.9721 0.0679073L9.54293 0.0341573L5.65309 0.0202342L3.51253 0.0125725C1.57465 0.00563618 0 1.57466 0 3.51256V19.3484C0 20.7256 1.11384 21.8434 2.49105 21.8484L19.4524 21.9091C20.8366 21.914 21.9614 20.7933 21.9614 19.4091Z"/>
</mask>
<path d="M21.9614 19.4091V3.06789C21.9614 1.41523 20.6247 0.0738227 18.9721 0.0679073L9.54293 0.0341573L5.65309 0.0202342L3.51253 0.0125725C1.57465 0.00563618 0 1.57466 0 3.51256V19.3484C0 20.7256 1.11384 21.8434 2.49105 21.8484L19.4524 21.9091C20.8366 21.914 21.9614 20.7933 21.9614 19.4091Z" fill="#E0E6FF"/>
<path d="M19.4524 21.9091L19.4488 22.9091H19.4488L19.4524 21.9091ZM2.49105 21.8484L2.49463 20.8484H2.49463L2.49105 21.8484ZM3.51253 0.0125725L3.51611 -0.987421L3.51253 0.0125725ZM5.65309 0.0202342L5.65667 -0.979759L5.65309 0.0202342ZM9.54293 0.0341573L9.53935 1.03415L9.54293 0.0341573ZM18.9721 0.0679073L18.9757 -0.932086L18.9721 0.0679073ZM20.9614 3.06789V19.4091H22.9614V3.06789H20.9614ZM19.456 20.9091L2.49463 20.8484L2.48747 22.8484L19.4488 22.9091L19.456 20.9091ZM1 19.3484V3.51256H-1V19.3484H1ZM3.50895 1.01257L5.64951 1.02023L5.65667 -0.979759L3.51611 -0.987421L3.50895 1.01257ZM9.53935 1.03415L18.9685 1.0679L18.9757 -0.932086L9.54651 -0.965836L9.53935 1.03415ZM9.54651 -0.965836L5.65667 -0.979759L5.64951 1.02023L9.53935 1.03415L9.54651 -0.965836ZM2.49463 20.8484C1.66831 20.8454 1 20.1747 1 19.3484H-1C-1 21.2765 0.559381 22.8415 2.48747 22.8484L2.49463 20.8484ZM20.9614 19.4091C20.9614 20.2396 20.2865 20.9121 19.456 20.9091L19.4488 22.9091C21.3867 22.916 22.9614 21.347 22.9614 19.4091H20.9614ZM22.9614 3.06789C22.9614 0.86434 21.1792 -0.924199 18.9757 -0.932086L18.9685 1.0679C20.0703 1.07184 20.9614 1.96611 20.9614 3.06789H22.9614ZM1 3.51256C1 2.12835 2.12475 1.00761 3.50895 1.01257L3.51611 -0.987421C1.02455 -0.996339 -1 1.02098 -1 3.51256H1Z" fill="#8D6CAB" mask="url(#path-1-inside-1_24325_43864)"/>
<mask id="path-3-inside-2_24325_43864" fill="white">
<path d="M24 17.3758V4.63084C24 3.25363 22.8862 2.13579 21.5089 2.13086L11.8002 2.09608L7.97885 2.08239L4.93425 2.07149C3.55005 2.06653 2.42529 3.18726 2.42529 4.57147V21.1115C2.42529 22.4922 3.54458 23.6115 4.92529 23.6115H21.5C22.8807 23.6115 24 22.4922 24 21.1115V17.3758Z"/>
</mask>
<path d="M24 17.3758V4.63084C24 3.25363 22.8862 2.13579 21.5089 2.13086L11.8002 2.09608L7.97885 2.08239L4.93425 2.07149C3.55005 2.06653 2.42529 3.18726 2.42529 4.57147V21.1115C2.42529 22.4922 3.54458 23.6115 4.92529 23.6115H21.5C22.8807 23.6115 24 22.4922 24 21.1115V17.3758Z" fill="#E0E6FF"/>
<path d="M2.22637 17.8402C2.0846 18.0772 2.16177 18.3842 2.39874 18.526C2.63571 18.6678 2.94274 18.5906 3.08451 18.3536L2.22637 17.8402ZM8.40362 8.48906L8.83269 8.74577L8.40362 8.48906ZM10.4896 8.53563L10.0495 8.77293L10.4896 8.53563ZM14.7223 16.3855L14.2821 16.6229L14.287 16.6315L14.7223 16.3855ZM15.8766 19.4438C16.0124 19.6842 16.3175 19.769 16.5579 19.6331C16.7983 19.4972 16.883 19.1922 16.7471 18.9518L15.8766 19.4438ZM16.9263 16.5198L16.6056 16.1362L16.5992 16.1417L16.9263 16.5198ZM18.8836 14.8834L19.2043 15.267L19.2134 15.2594L19.2222 15.2513L18.8836 14.8834ZM21.0015 14.7485L21.331 14.3724L21.3255 14.3677L21.0015 14.7485ZM3.08451 18.3536L8.83269 8.74577L7.97454 8.23236L2.22637 17.8402L3.08451 18.3536ZM10.0495 8.77293L14.2822 16.6228L15.1624 16.1482L10.9297 8.29833L10.0495 8.77293ZM14.287 16.6315L15.8766 19.4438L16.7471 18.9518L15.1575 16.1395L14.287 16.6315ZM14.3025 16.6572C14.6675 17.2212 15.2356 17.4533 15.7887 17.453C16.3254 17.4528 16.8611 17.2375 17.2535 16.8979L16.5992 16.1417C16.3768 16.3341 16.07 16.4529 15.7882 16.453C15.5228 16.4532 15.2962 16.3521 15.142 16.1139L14.3025 16.6572ZM17.2471 16.9034L19.2043 15.267L18.5629 14.4998L16.6056 16.1362L17.2471 16.9034ZM19.2222 15.2513C19.4857 15.0089 19.7517 14.8982 19.985 14.8817C20.2124 14.8656 20.4494 14.9353 20.6775 15.1294L21.3255 14.3677C20.9115 14.0156 20.4202 13.8484 19.9144 13.8842C19.4147 13.9196 18.9428 14.1495 18.545 14.5155L19.2222 15.2513ZM20.672 15.1246L23.6705 17.7519L24.3295 16.9997L21.331 14.3725L20.672 15.1246ZM8.83269 8.74577C9.11151 8.27972 9.79179 8.29491 10.0495 8.77293L10.9297 8.29833C10.3038 7.13742 8.65168 7.10054 7.97454 8.23236L8.83269 8.74577ZM4.93425 2.07149L4.93067 3.07148L4.93425 2.07149ZM7.97885 2.08239L7.97527 3.08239L7.97885 2.08239ZM11.8002 2.09608L11.8038 1.09609L11.8002 2.09608ZM21.5089 2.13086L21.5125 1.13087L21.5089 2.13086ZM23 4.63084V17.3758H25V4.63084H23ZM23 17.3758V21.1115H25V17.3758H23ZM21.5 22.6115H4.92529V24.6115H21.5V22.6115ZM3.42529 21.1115V4.57147H1.42529V21.1115H3.42529ZM4.93067 3.07148L7.97527 3.08239L7.98243 1.0824L4.93783 1.07149L4.93067 3.07148ZM11.7966 3.09608L21.5054 3.13085L21.5125 1.13087L11.8038 1.09609L11.7966 3.09608ZM7.97527 3.08239L11.7966 3.09608L11.8038 1.09609L7.98243 1.0824L7.97527 3.08239ZM4.92529 22.6115C4.09687 22.6115 3.42529 21.9399 3.42529 21.1115H1.42529C1.42529 23.0445 2.99229 24.6115 4.92529 24.6115V22.6115ZM23 21.1115C23 21.9399 22.3284 22.6115 21.5 22.6115V24.6115C23.433 24.6115 25 23.0445 25 21.1115H23ZM25 4.63084C25 2.70274 23.4406 1.13777 21.5125 1.13087L21.5054 3.13085C22.3317 3.13381 23 3.80451 23 4.63084H25ZM3.42529 4.57147C3.42529 3.74095 4.10015 3.06851 4.93067 3.07148L4.93783 1.07149C2.99995 1.06455 1.42529 2.63358 1.42529 4.57147H3.42529Z" fill="#8D6CAB" mask="url(#path-3-inside-2_24325_43864)"/>
<path fill-rule="evenodd" clip-rule="evenodd" d="M18.0988 10.9211C19.4501 10.9211 20.5457 9.82563 20.5457 8.47424C20.5457 7.12286 19.4501 6.02734 18.0988 6.02734C16.7474 6.02734 15.6519 7.12286 15.6519 8.47424C15.6519 9.82563 16.7474 10.9211 18.0988 10.9211ZM18.0989 10.0349C18.9606 10.0349 19.6592 9.33632 19.6592 8.47462C19.6592 7.61292 18.9606 6.91438 18.0989 6.91438C17.2372 6.91438 16.5387 7.61292 16.5387 8.47462C16.5387 9.33632 17.2372 10.0349 18.0989 10.0349Z" fill="#AE2573"/>
</svg>
