<svg width="22" height="22" viewBox="0 0 22 22" fill="none" xmlns="http://www.w3.org/2000/svg">
<path d="M21.2967 20.0385L16.0607 14.5928C17.407 12.9924 18.1446 10.9788 18.1446 8.88249C18.1446 3.98476 14.1599 0 9.26213 0C4.3644 0 0.379639 3.98476 0.379639 8.88249C0.379639 13.7802 4.3644 17.765 9.26213 17.765C11.1008 17.765 12.853 17.2104 14.351 16.1576L19.6268 21.6447C19.8474 21.8737 20.144 22 20.4618 22C20.7626 22 21.048 21.8853 21.2647 21.6768C21.725 21.2338 21.7397 20.4992 21.2967 20.0385ZM9.26213 2.31717C12.8823 2.31717 15.8275 5.2623 15.8275 8.88249C15.8275 12.5027 12.8823 15.4478 9.26213 15.4478C5.64194 15.4478 2.69681 12.5027 2.69681 8.88249C2.69681 5.2623 5.64194 2.31717 9.26213 2.31717Z" fill="#333333"/>
</svg>
